<svg width="200" height="50" viewBox="0 0 200 50" fill="none" xmlns="http://www.w3.org/2000/svg">
<rect x="5" y="5" width="40" height="40" fill="#3748AC"/>
<path d="M60.2734 19L57.5234 10.0391H57.4531C57.4635 10.2526 57.4792 10.5755 57.5 11.0078C57.526 11.4349 57.5495 11.8906 57.5703 12.375C57.5911 12.8594 57.6016 13.2969 57.6016 13.6875V19H55.4375V7.57812H58.7344L61.4375 16.3125H61.4844L64.3516 7.57812H67.6484V19H65.3906V13.5938C65.3906 13.2344 65.3958 12.8203 65.4062 12.3516C65.4219 11.8828 65.4401 11.4375 65.4609 11.0156C65.4818 10.5885 65.4974 10.2682 65.5078 10.0547H65.4375L62.4922 19H60.2734Z" fill="black"/>
<path d="M78.3594 10.2656V19H76.5312L76.2109 17.8828H76.0859C75.8984 18.1797 75.6641 18.4219 75.3828 18.6094C75.1016 18.7969 74.7917 18.9349 74.4531 19.0234C74.1146 19.112 73.763 19.1562 73.3984 19.1562C72.7734 19.1562 72.2292 19.0469 71.7656 18.8281C71.3021 18.6042 70.9401 18.2578 70.6797 17.7891C70.4245 17.3203 70.2969 16.7109 70.2969 15.9609V10.2656H72.6797V15.3672C72.6797 15.9922 72.7917 16.4635 73.0156 16.7812C73.2396 17.099 73.5964 17.2578 74.0859 17.2578C74.5703 17.2578 74.9505 17.1484 75.2266 16.9297C75.5026 16.7057 75.6953 16.3802 75.8047 15.9531C75.9193 15.5208 75.9766 14.9948 75.9766 14.375V10.2656H78.3594Z" fill="black"/>
<path d="M83.2422 19H80.8594V6.84375H83.2422V19Z" fill="black"/>
<path d="M89.4297 17.2578C89.6901 17.2578 89.9427 17.2318 90.1875 17.1797C90.4375 17.1276 90.6849 17.0625 90.9297 16.9844V18.7578C90.6745 18.8724 90.3568 18.9661 89.9766 19.0391C89.6016 19.1172 89.1901 19.1562 88.7422 19.1562C88.2214 19.1562 87.7526 19.0729 87.3359 18.9062C86.9245 18.7344 86.599 18.4401 86.3594 18.0234C86.125 17.6016 86.0078 17.0156 86.0078 16.2656V12.0547H84.8672V11.0469L86.1797 10.25L86.8672 8.40625H88.3906V10.2656H90.8359V12.0547H88.3906V16.2656C88.3906 16.599 88.4844 16.849 88.6719 17.0156C88.8646 17.1771 89.1172 17.2578 89.4297 17.2578Z" fill="black"/>
<path d="M95.0859 10.2656V19H92.7031V10.2656H95.0859ZM93.8984 6.84375C94.2526 6.84375 94.5573 6.92708 94.8125 7.09375C95.0677 7.25521 95.1953 7.5599 95.1953 8.00781C95.1953 8.45052 95.0677 8.75781 94.8125 8.92969C94.5573 9.09635 94.2526 9.17969 93.8984 9.17969C93.5391 9.17969 93.2318 9.09635 92.9766 8.92969C92.7266 8.75781 92.6016 8.45052 92.6016 8.00781C92.6016 7.5599 92.7266 7.25521 92.9766 7.09375C93.2318 6.92708 93.5391 6.84375 93.8984 6.84375Z" fill="black"/>
<path d="M96.8203 15.6875V13.7344H101.016V15.6875H96.8203Z" fill="black"/>
<path d="M112.125 19H109.375L106.383 14.1875L105.359 14.9219V19H102.938V7.57812H105.359V12.8047C105.521 12.5807 105.68 12.3568 105.836 12.1328C105.992 11.9089 106.151 11.6849 106.312 11.4609L109.406 7.57812H112.094L108.109 12.6328L112.125 19Z" fill="black"/>
<path d="M116.977 10.1016C117.784 10.1016 118.479 10.2578 119.062 10.5703C119.646 10.8776 120.096 11.3255 120.414 11.9141C120.732 12.5026 120.891 13.2214 120.891 14.0703V15.2266H115.258C115.284 15.8984 115.484 16.4271 115.859 16.8125C116.24 17.1927 116.766 17.3828 117.438 17.3828C117.995 17.3828 118.505 17.3255 118.969 17.2109C119.432 17.0964 119.909 16.9245 120.398 16.6953V18.5391C119.966 18.7526 119.513 18.9089 119.039 19.0078C118.57 19.1068 118 19.1562 117.328 19.1562C116.453 19.1562 115.677 18.9948 115 18.6719C114.328 18.349 113.799 17.8568 113.414 17.1953C113.034 16.5339 112.844 15.7005 112.844 14.6953C112.844 13.6745 113.016 12.8255 113.359 12.1484C113.708 11.4661 114.193 10.9557 114.812 10.6172C115.432 10.2734 116.154 10.1016 116.977 10.1016ZM116.992 11.7969C116.529 11.7969 116.143 11.9453 115.836 12.2422C115.534 12.5391 115.359 13.0052 115.312 13.6406H118.656C118.651 13.2865 118.586 12.9714 118.461 12.6953C118.341 12.4193 118.159 12.2005 117.914 12.0391C117.674 11.8776 117.367 11.7969 116.992 11.7969Z" fill="black"/>
<path d="M121.578 10.2656H124.188L125.836 15.1797C125.888 15.3359 125.932 15.4948 125.969 15.6562C126.005 15.8177 126.036 15.9844 126.062 16.1562C126.089 16.3281 126.109 16.5078 126.125 16.6953H126.172C126.203 16.4141 126.245 16.151 126.297 15.9062C126.354 15.6615 126.424 15.4193 126.508 15.1797L128.125 10.2656H130.68L126.984 20.1172C126.76 20.7214 126.469 21.224 126.109 21.625C125.75 22.0312 125.336 22.3359 124.867 22.5391C124.404 22.7422 123.893 22.8438 123.336 22.8438C123.065 22.8438 122.831 22.8281 122.633 22.7969C122.435 22.7708 122.266 22.7422 122.125 22.7109V20.8203C122.234 20.8464 122.372 20.8698 122.539 20.8906C122.706 20.9115 122.88 20.9219 123.062 20.9219C123.396 20.9219 123.682 20.8516 123.922 20.7109C124.161 20.5703 124.362 20.3802 124.523 20.1406C124.685 19.9062 124.812 19.6484 124.906 19.3672L125.047 18.9375L121.578 10.2656Z" fill="black"/>
<path d="M139.117 19L138.445 15.9453C138.409 15.763 138.349 15.4948 138.266 15.1406C138.182 14.7812 138.091 14.3984 137.992 13.9922C137.898 13.5807 137.81 13.2005 137.727 12.8516C137.648 12.5026 137.591 12.2474 137.555 12.0859H137.484C137.448 12.2474 137.391 12.5026 137.312 12.8516C137.234 13.2005 137.146 13.5807 137.047 13.9922C136.953 14.4036 136.865 14.7917 136.781 15.1562C136.698 15.5156 136.635 15.7891 136.594 15.9766L135.891 19H133.328L130.844 10.2656H133.219L134.227 14.1328C134.294 14.4036 134.359 14.7266 134.422 15.1016C134.484 15.4714 134.539 15.8307 134.586 16.1797C134.638 16.5234 134.677 16.7969 134.703 17H134.766C134.776 16.849 134.797 16.6484 134.828 16.3984C134.865 16.1484 134.904 15.8906 134.945 15.625C134.992 15.3542 135.034 15.112 135.07 14.8984C135.112 14.6797 135.143 14.5312 135.164 14.4531L136.242 10.2656H138.867L139.891 14.4531C139.927 14.6042 139.974 14.8438 140.031 15.1719C140.094 15.5 140.148 15.8385 140.195 16.1875C140.242 16.5312 140.268 16.8021 140.273 17H140.336C140.357 16.8229 140.393 16.5599 140.445 16.2109C140.497 15.862 140.557 15.4974 140.625 15.1172C140.698 14.7318 140.771 14.4036 140.844 14.1328L141.891 10.2656H144.227L141.711 19H139.117Z" fill="black"/>
<path d="M153.578 14.6172C153.578 15.3464 153.479 15.9922 153.281 16.5547C153.089 17.1172 152.805 17.5938 152.43 17.9844C152.06 18.3698 151.612 18.6615 151.086 18.8594C150.565 19.0573 149.977 19.1562 149.32 19.1562C148.706 19.1562 148.141 19.0573 147.625 18.8594C147.115 18.6615 146.669 18.3698 146.289 17.9844C145.914 17.5938 145.622 17.1172 145.414 16.5547C145.211 15.9922 145.109 15.3464 145.109 14.6172C145.109 13.6484 145.281 12.8281 145.625 12.1562C145.969 11.4844 146.458 10.974 147.094 10.625C147.729 10.276 148.487 10.1016 149.367 10.1016C150.185 10.1016 150.909 10.276 151.539 10.625C152.174 10.974 152.672 11.4844 153.031 12.1562C153.396 12.8281 153.578 13.6484 153.578 14.6172ZM147.539 14.6172C147.539 15.1901 147.602 15.6719 147.727 16.0625C147.852 16.4531 148.047 16.7474 148.312 16.9453C148.578 17.1432 148.924 17.2422 149.352 17.2422C149.773 17.2422 150.115 17.1432 150.375 16.9453C150.641 16.7474 150.833 16.4531 150.953 16.0625C151.078 15.6719 151.141 15.1901 151.141 14.6172C151.141 14.0391 151.078 13.5599 150.953 13.1797C150.833 12.7943 150.641 12.5052 150.375 12.3125C150.109 12.1198 149.763 12.0234 149.336 12.0234C148.706 12.0234 148.247 12.2396 147.961 12.6719C147.68 13.1042 147.539 13.7526 147.539 14.6172Z" fill="black"/>
<path d="M160.422 10.1016C160.542 10.1016 160.68 10.1094 160.836 10.125C160.997 10.1354 161.128 10.151 161.227 10.1719L161.047 12.4062C160.969 12.3802 160.857 12.362 160.711 12.3516C160.57 12.3359 160.448 12.3281 160.344 12.3281C160.036 12.3281 159.737 12.3672 159.445 12.4453C159.159 12.5234 158.901 12.651 158.672 12.8281C158.443 13 158.26 13.2292 158.125 13.5156C157.995 13.7969 157.93 14.1432 157.93 14.5547V19H155.547V10.2656H157.352L157.703 11.7344H157.82C157.992 11.4375 158.206 11.1667 158.461 10.9219C158.721 10.6719 159.016 10.474 159.344 10.3281C159.677 10.1771 160.036 10.1016 160.422 10.1016Z" fill="black"/>
<path d="M165.578 19.1562C164.604 19.1562 163.81 18.776 163.195 18.0156C162.586 17.25 162.281 16.1276 162.281 14.6484C162.281 13.1536 162.591 12.0234 163.211 11.2578C163.831 10.487 164.641 10.1016 165.641 10.1016C166.057 10.1016 166.424 10.1589 166.742 10.2734C167.06 10.388 167.333 10.5417 167.562 10.7344C167.797 10.9271 167.995 11.1432 168.156 11.3828H168.234C168.203 11.2161 168.164 10.9714 168.117 10.6484C168.076 10.3203 168.055 9.98438 168.055 9.64062V6.84375H170.445V19H168.617L168.156 17.8672H168.055C167.904 18.1068 167.714 18.3255 167.484 18.5234C167.26 18.7161 166.992 18.8698 166.68 18.9844C166.367 19.099 166 19.1562 165.578 19.1562ZM166.414 17.2578C167.065 17.2578 167.523 17.0651 167.789 16.6797C168.06 16.2891 168.203 15.7031 168.219 14.9219V14.6641C168.219 13.8151 168.089 13.1667 167.828 12.7188C167.568 12.2656 167.083 12.0391 166.375 12.0391C165.849 12.0391 165.438 12.2656 165.141 12.7188C164.844 13.1719 164.695 13.8255 164.695 14.6797C164.695 15.5339 164.844 16.1771 165.141 16.6094C165.443 17.0417 165.867 17.2578 166.414 17.2578Z" fill="black"/>
<path d="M179.031 16.4062C179.031 17 178.891 17.5026 178.609 17.9141C178.333 18.3203 177.919 18.6302 177.367 18.8438C176.815 19.0521 176.128 19.1562 175.305 19.1562C174.695 19.1562 174.172 19.1172 173.734 19.0391C173.302 18.9609 172.865 18.8307 172.422 18.6484V16.6797C172.896 16.8932 173.404 17.0703 173.945 17.2109C174.492 17.3464 174.971 17.4141 175.383 17.4141C175.846 17.4141 176.177 17.3464 176.375 17.2109C176.578 17.0703 176.68 16.888 176.68 16.6641C176.68 16.5182 176.638 16.388 176.555 16.2734C176.477 16.1536 176.305 16.0208 176.039 15.875C175.773 15.724 175.357 15.5286 174.789 15.2891C174.242 15.0599 173.792 14.8281 173.438 14.5938C173.089 14.3594 172.828 14.0833 172.656 13.7656C172.49 13.4427 172.406 13.0339 172.406 12.5391C172.406 11.7318 172.719 11.125 173.344 10.7188C173.974 10.3073 174.815 10.1016 175.867 10.1016C176.409 10.1016 176.924 10.1562 177.414 10.2656C177.909 10.375 178.417 10.5495 178.938 10.7891L178.219 12.5078C177.786 12.3203 177.378 12.1667 176.992 12.0469C176.612 11.9271 176.224 11.8672 175.828 11.8672C175.479 11.8672 175.216 11.9141 175.039 12.0078C174.862 12.1016 174.773 12.2448 174.773 12.4375C174.773 12.5781 174.818 12.7031 174.906 12.8125C175 12.9219 175.177 13.0443 175.438 13.1797C175.703 13.3099 176.091 13.4792 176.602 13.6875C177.096 13.8906 177.526 14.1042 177.891 14.3281C178.255 14.5469 178.536 14.8203 178.734 15.1484C178.932 15.4714 179.031 15.8906 179.031 16.4062Z" fill="black"/>
<path d="M64.7969 41H62.3828V36.0703H57.8594V41H55.4375V29.5781H57.8594V34.0547H62.3828V29.5781H64.7969V41Z" fill="black"/>
<path d="M69.8828 32.2656V41H67.5V32.2656H69.8828ZM68.6953 28.8438C69.0495 28.8438 69.3542 28.9271 69.6094 29.0938C69.8646 29.2552 69.9922 29.5599 69.9922 30.0078C69.9922 30.4505 69.8646 30.7578 69.6094 30.9297C69.3542 31.0964 69.0495 31.1797 68.6953 31.1797C68.3359 31.1797 68.0286 31.0964 67.7734 30.9297C67.5234 30.7578 67.3984 30.4505 67.3984 30.0078C67.3984 29.5599 67.5234 29.2552 67.7734 29.0938C68.0286 28.9271 68.3359 28.8438 68.6953 28.8438Z" fill="black"/>
<path d="M74.9453 44.8438C73.7266 44.8438 72.7943 44.6302 72.1484 44.2031C71.5078 43.7812 71.1875 43.1875 71.1875 42.4219C71.1875 41.8958 71.3516 41.4557 71.6797 41.1016C72.0078 40.7474 72.4896 40.4948 73.125 40.3438C72.8802 40.2396 72.6667 40.0703 72.4844 39.8359C72.3021 39.5964 72.2109 39.3438 72.2109 39.0781C72.2109 38.7448 72.3073 38.4688 72.5 38.25C72.6927 38.026 72.9714 37.8073 73.3359 37.5938C72.8776 37.3958 72.513 37.0781 72.2422 36.6406C71.9766 36.2031 71.8438 35.6875 71.8438 35.0938C71.8438 34.4583 71.9818 33.9193 72.2578 33.4766C72.5391 33.0286 72.9453 32.6875 73.4766 32.4531C74.013 32.2188 74.6641 32.1016 75.4297 32.1016C75.5911 32.1016 75.7786 32.112 75.9922 32.1328C76.2057 32.1536 76.401 32.1771 76.5781 32.2031C76.7604 32.2292 76.8828 32.25 76.9453 32.2656H79.9922V33.4766L78.625 33.8281C78.75 34.0208 78.8438 34.2266 78.9062 34.4453C78.9688 34.6641 79 34.8958 79 35.1406C79 36.0781 78.6719 36.8099 78.0156 37.3359C77.3646 37.8568 76.4583 38.1172 75.2969 38.1172C75.0208 38.1016 74.7604 38.0807 74.5156 38.0547C74.3958 38.1484 74.3047 38.2474 74.2422 38.3516C74.1797 38.4557 74.1484 38.5651 74.1484 38.6797C74.1484 38.7943 74.1953 38.8906 74.2891 38.9688C74.388 39.0417 74.5339 39.099 74.7266 39.1406C74.9245 39.1771 75.1693 39.1953 75.4609 39.1953H76.9453C77.9036 39.1953 78.6328 39.401 79.1328 39.8125C79.638 40.224 79.8906 40.8281 79.8906 41.625C79.8906 42.6458 79.4635 43.4375 78.6094 44C77.7604 44.5625 76.5391 44.8438 74.9453 44.8438ZM75.0469 43.2891C75.6146 43.2891 76.1016 43.2344 76.5078 43.125C76.9193 43.0208 77.2344 42.8698 77.4531 42.6719C77.6719 42.4792 77.7812 42.2474 77.7812 41.9766C77.7812 41.7578 77.7161 41.5833 77.5859 41.4531C77.4609 41.3281 77.2682 41.2396 77.0078 41.1875C76.7526 41.1354 76.4245 41.1094 76.0234 41.1094H74.7891C74.4974 41.1094 74.2344 41.1562 74 41.25C73.7708 41.3438 73.5885 41.474 73.4531 41.6406C73.3177 41.8125 73.25 42.0104 73.25 42.2344C73.25 42.5625 73.4062 42.8203 73.7188 43.0078C74.0365 43.1953 74.4792 43.2891 75.0469 43.2891ZM75.4297 36.6641C75.8776 36.6641 76.2057 36.526 76.4141 36.25C76.6224 35.974 76.7266 35.599 76.7266 35.125C76.7266 34.599 76.6172 34.2057 76.3984 33.9453C76.1849 33.6797 75.862 33.5469 75.4297 33.5469C74.9922 33.5469 74.6641 33.6797 74.4453 33.9453C74.2266 34.2057 74.1172 34.599 74.1172 35.125C74.1172 35.599 74.224 35.974 74.4375 36.25C74.6562 36.526 74.987 36.6641 75.4297 36.6641Z" fill="black"/>
<path d="M83.8203 28.8438V31.3203C83.8203 31.7526 83.8047 32.1641 83.7734 32.5547C83.7474 32.9453 83.7266 33.2214 83.7109 33.3828H83.8359C84.0234 33.0807 84.2448 32.8359 84.5 32.6484C84.7604 32.4609 85.0469 32.3229 85.3594 32.2344C85.6719 32.1458 86.0078 32.1016 86.3672 32.1016C86.9974 32.1016 87.5469 32.2135 88.0156 32.4375C88.4844 32.6562 88.849 33.0026 89.1094 33.4766C89.3698 33.9453 89.5 34.5547 89.5 35.3047V41H87.1172V35.8984C87.1172 35.2734 87.0026 34.8021 86.7734 34.4844C86.5443 34.1667 86.1901 34.0078 85.7109 34.0078C85.2318 34.0078 84.8542 34.1198 84.5781 34.3438C84.3021 34.5625 84.1068 34.888 83.9922 35.3203C83.8776 35.7474 83.8203 36.2708 83.8203 36.8906V41H81.4375V28.8438H83.8203Z" fill="black"/>
<path d="M94.3359 41H91.9531V28.8438H94.3359V41Z" fill="black"/>
<path d="M99.2266 32.2656V41H96.8438V32.2656H99.2266ZM98.0391 28.8438C98.3932 28.8438 98.6979 28.9271 98.9531 29.0938C99.2083 29.2552 99.3359 29.5599 99.3359 30.0078C99.3359 30.4505 99.2083 30.7578 98.9531 30.9297C98.6979 31.0964 98.3932 31.1797 98.0391 31.1797C97.6797 31.1797 97.3724 31.0964 97.1172 30.9297C96.8672 30.7578 96.7422 30.4505 96.7422 30.0078C96.7422 29.5599 96.8672 29.2552 97.1172 29.0938C97.3724 28.9271 97.6797 28.8438 98.0391 28.8438Z" fill="black"/>
<path d="M104.289 44.8438C103.07 44.8438 102.138 44.6302 101.492 44.2031C100.852 43.7812 100.531 43.1875 100.531 42.4219C100.531 41.8958 100.695 41.4557 101.023 41.1016C101.352 40.7474 101.833 40.4948 102.469 40.3438C102.224 40.2396 102.01 40.0703 101.828 39.8359C101.646 39.5964 101.555 39.3438 101.555 39.0781C101.555 38.7448 101.651 38.4688 101.844 38.25C102.036 38.026 102.315 37.8073 102.68 37.5938C102.221 37.3958 101.857 37.0781 101.586 36.6406C101.32 36.2031 101.188 35.6875 101.188 35.0938C101.188 34.4583 101.326 33.9193 101.602 33.4766C101.883 33.0286 102.289 32.6875 102.82 32.4531C103.357 32.2188 104.008 32.1016 104.773 32.1016C104.935 32.1016 105.122 32.112 105.336 32.1328C105.549 32.1536 105.745 32.1771 105.922 32.2031C106.104 32.2292 106.227 32.25 106.289 32.2656H109.336V33.4766L107.969 33.8281C108.094 34.0208 108.188 34.2266 108.25 34.4453C108.312 34.6641 108.344 34.8958 108.344 35.1406C108.344 36.0781 108.016 36.8099 107.359 37.3359C106.708 37.8568 105.802 38.1172 104.641 38.1172C104.365 38.1016 104.104 38.0807 103.859 38.0547C103.74 38.1484 103.648 38.2474 103.586 38.3516C103.523 38.4557 103.492 38.5651 103.492 38.6797C103.492 38.7943 103.539 38.8906 103.633 38.9688C103.732 39.0417 103.878 39.099 104.07 39.1406C104.268 39.1771 104.513 39.1953 104.805 39.1953H106.289C107.247 39.1953 107.977 39.401 108.477 39.8125C108.982 40.224 109.234 40.8281 109.234 41.625C109.234 42.6458 108.807 43.4375 107.953 44C107.104 44.5625 105.883 44.8438 104.289 44.8438ZM104.391 43.2891C104.958 43.2891 105.445 43.2344 105.852 43.125C106.263 43.0208 106.578 42.8698 106.797 42.6719C107.016 42.4792 107.125 42.2474 107.125 41.9766C107.125 41.7578 107.06 41.5833 106.93 41.4531C106.805 41.3281 106.612 41.2396 106.352 41.1875C106.096 41.1354 105.768 41.1094 105.367 41.1094H104.133C103.841 41.1094 103.578 41.1562 103.344 41.25C103.115 41.3438 102.932 41.474 102.797 41.6406C102.661 41.8125 102.594 42.0104 102.594 42.2344C102.594 42.5625 102.75 42.8203 103.062 43.0078C103.38 43.1953 103.823 43.2891 104.391 43.2891ZM104.773 36.6641C105.221 36.6641 105.549 36.526 105.758 36.25C105.966 35.974 106.07 35.599 106.07 35.125C106.07 34.599 105.961 34.2057 105.742 33.9453C105.529 33.6797 105.206 33.5469 104.773 33.5469C104.336 33.5469 104.008 33.6797 103.789 33.9453C103.57 34.2057 103.461 34.599 103.461 35.125C103.461 35.599 103.568 35.974 103.781 36.25C104 36.526 104.331 36.6641 104.773 36.6641Z" fill="black"/>
<path d="M113.164 28.8438V31.3203C113.164 31.7526 113.148 32.1641 113.117 32.5547C113.091 32.9453 113.07 33.2214 113.055 33.3828H113.18C113.367 33.0807 113.589 32.8359 113.844 32.6484C114.104 32.4609 114.391 32.3229 114.703 32.2344C115.016 32.1458 115.352 32.1016 115.711 32.1016C116.341 32.1016 116.891 32.2135 117.359 32.4375C117.828 32.6562 118.193 33.0026 118.453 33.4766C118.714 33.9453 118.844 34.5547 118.844 35.3047V41H116.461V35.8984C116.461 35.2734 116.346 34.8021 116.117 34.4844C115.888 34.1667 115.534 34.0078 115.055 34.0078C114.576 34.0078 114.198 34.1198 113.922 34.3438C113.646 34.5625 113.451 34.888 113.336 35.3203C113.221 35.7474 113.164 36.2708 113.164 36.8906V41H110.781V28.8438H113.164Z" fill="black"/>
<path d="M124.977 39.2578C125.237 39.2578 125.49 39.2318 125.734 39.1797C125.984 39.1276 126.232 39.0625 126.477 38.9844V40.7578C126.221 40.8724 125.904 40.9661 125.523 41.0391C125.148 41.1172 124.737 41.1562 124.289 41.1562C123.768 41.1562 123.299 41.0729 122.883 40.9062C122.471 40.7344 122.146 40.4401 121.906 40.0234C121.672 39.6016 121.555 39.0156 121.555 38.2656V34.0547H120.414V33.0469L121.727 32.25L122.414 30.4062H123.938V32.2656H126.383V34.0547H123.938V38.2656C123.938 38.599 124.031 38.849 124.219 39.0156C124.411 39.1771 124.664 39.2578 124.977 39.2578Z" fill="black"/>
<path d="M131.852 32.1016C132.659 32.1016 133.354 32.2578 133.938 32.5703C134.521 32.8776 134.971 33.3255 135.289 33.9141C135.607 34.5026 135.766 35.2214 135.766 36.0703V37.2266H130.133C130.159 37.8984 130.359 38.4271 130.734 38.8125C131.115 39.1927 131.641 39.3828 132.312 39.3828C132.87 39.3828 133.38 39.3255 133.844 39.2109C134.307 39.0964 134.784 38.9245 135.273 38.6953V40.5391C134.841 40.7526 134.388 40.9089 133.914 41.0078C133.445 41.1068 132.875 41.1562 132.203 41.1562C131.328 41.1562 130.552 40.9948 129.875 40.6719C129.203 40.349 128.674 39.8568 128.289 39.1953C127.909 38.5339 127.719 37.7005 127.719 36.6953C127.719 35.6745 127.891 34.8255 128.234 34.1484C128.583 33.4661 129.068 32.9557 129.688 32.6172C130.307 32.2734 131.029 32.1016 131.852 32.1016ZM131.867 33.7969C131.404 33.7969 131.018 33.9453 130.711 34.2422C130.409 34.5391 130.234 35.0052 130.188 35.6406H133.531C133.526 35.2865 133.461 34.9714 133.336 34.6953C133.216 34.4193 133.034 34.2005 132.789 34.0391C132.549 33.8776 132.242 33.7969 131.867 33.7969Z" fill="black"/>
<path d="M142.578 32.1016C142.698 32.1016 142.836 32.1094 142.992 32.125C143.154 32.1354 143.284 32.151 143.383 32.1719L143.203 34.4062C143.125 34.3802 143.013 34.362 142.867 34.3516C142.727 34.3359 142.604 34.3281 142.5 34.3281C142.193 34.3281 141.893 34.3672 141.602 34.4453C141.315 34.5234 141.057 34.651 140.828 34.8281C140.599 35 140.417 35.2292 140.281 35.5156C140.151 35.7969 140.086 36.1432 140.086 36.5547V41H137.703V32.2656H139.508L139.859 33.7344H139.977C140.148 33.4375 140.362 33.1667 140.617 32.9219C140.878 32.6719 141.172 32.474 141.5 32.3281C141.833 32.1771 142.193 32.1016 142.578 32.1016Z" fill="black"/>
<path d="M22.1152 38L15.9277 17.8379H15.7695C15.793 18.3184 15.8281 19.0449 15.875 20.0176C15.9336 20.9785 15.9863 22.0039 16.0332 23.0938C16.0801 24.1836 16.1035 25.168 16.1035 26.0469V38H11.2344V12.3008H18.6523L24.7344 31.9531H24.8398L31.291 12.3008H38.709V38H33.6289V25.8359C33.6289 25.0273 33.6406 24.0957 33.6641 23.041C33.6992 21.9863 33.7402 20.9844 33.7871 20.0352C33.834 19.0742 33.8691 18.3535 33.8926 17.873H33.7344L27.1074 38H22.1152Z" fill="white"/>
</svg>
