<svg width="128" height="128" viewBox="0 0 128 128" fill="none" xmlns="http://www.w3.org/2000/svg">
  <g clip-path="url(#clip_m)">
    <rect width="128" height="128" fill="white"/>
    <path d="M128 0H0V128H128V0Z" fill="#3748AC"/>
    <path d="M54.7686 105.6L34.9686 41.0812H34.4624C34.5376 42.6188 34.6499 44.9436 34.8 48.0562C34.9875 51.1311 35.1562 54.4124 35.3062 57.9001C35.4563 61.3874 35.5312 64.5375 35.5312 67.35V105.6H19.9501V23.3625H43.6874L63.1501 86.2498H63.4874L84.1312 23.3625H107.869V105.6H91.6125V66.6748C91.6125 64.0873 91.6499 61.1062 91.7251 57.7311C91.8374 54.3561 91.9687 51.15 92.1187 48.1126C92.2688 45.0374 92.3811 42.7311 92.4563 41.1935H91.9501L70.7437 105.6H54.7686Z" fill="white"/>
  </g>
  <defs>
    <clipPath id="clip_m">
      <rect width="128" height="128" fill="white"/>
    </clipPath>
  </defs>
</svg>
